<mxfile host="app.diagrams.net" modified="2023-05-07T14:32:44.979Z" agent="Mozilla/5.0 (Macintosh; Intel Mac OS X 10_15_7) AppleWebKit/605.1.15 (KHTML, like Gecko) Version/16.3 Safari/605.1.15" version="21.2.7" etag="jsHpSxKoKWpIChPlCXag" type="github">
  <diagram name="Page-1" id="nV6t8BlGsrAP6Lvsd7ia">
    <mxGraphModel>
      <root>
        <mxCell id="0" />
        <mxCell id="1" parent="0" />
      </root>
    </mxGraphModel>
  </diagram>
</mxfile>
